<svg width="120" height="60" viewBox="0 0 120 60" fill="none" xmlns="http://www.w3.org/2000/svg">
<path d="M13.1041 38.1121H12.0121L10.1221 43.6421L8.24605 38.1121H7.15405L9.67405 45.0001H10.5701L13.1041 38.1121Z" fill="black" fill-opacity="0.65"/>
<path d="M15.5998 36.1521V35.0181H14.4658V36.1521H15.5998ZM15.5298 45.0001V38.1121H14.5218V45.0001H15.5298Z" fill="black" fill-opacity="0.65"/>
<path d="M23.1728 45.0001V35.0321H22.1648V38.9101C21.6048 38.1961 20.9748 38.0281 20.2188 38.0281C19.5188 38.0281 18.9028 38.2661 18.5388 38.6301C17.8388 39.3301 17.6988 40.4781 17.6988 41.5561C17.6988 42.6341 17.8388 43.7821 18.5388 44.4821C18.9028 44.8461 19.5188 45.0841 20.2188 45.0841C20.9748 45.0841 21.6188 44.9021 22.1788 44.1741V45.0001H23.1728ZM22.1648 41.5561C22.1648 42.9001 21.9408 44.1881 20.4428 44.1881C18.9448 44.1881 18.7068 42.9001 18.7068 41.5561C18.7068 40.2121 18.9448 38.9241 20.4428 38.9241C21.9408 38.9241 22.1648 40.2121 22.1648 41.5561Z" fill="black" fill-opacity="0.65"/>
<path d="M30.9697 41.8221V41.3601C30.9697 39.3161 29.9197 38.0281 28.1417 38.0281C26.3917 38.0281 25.3137 39.3301 25.3137 41.5561C25.3137 43.9921 26.5037 45.0841 28.3237 45.0841C29.4997 45.0841 30.1437 44.7201 30.8437 44.0201L30.1577 43.4181C29.6117 43.9641 29.1497 44.2021 28.3517 44.2021C27.0357 44.2021 26.3217 43.3341 26.3217 41.8221H30.9697ZM29.9617 41.0661H26.3217C26.3497 40.5061 26.3777 40.2961 26.5317 39.9181C26.7977 39.2881 27.4137 38.8821 28.1417 38.8821C28.8697 38.8821 29.4857 39.2881 29.7517 39.9181C29.9057 40.2961 29.9337 40.5061 29.9617 41.0661Z" fill="black" fill-opacity="0.65"/>
<path d="M38.3795 41.5561C38.3795 40.4921 38.2395 39.5261 37.5395 38.8121C37.0635 38.3361 36.4055 38.0281 35.5655 38.0281C34.7255 38.0281 34.0675 38.3361 33.5915 38.8121C32.8915 39.5261 32.7515 40.4921 32.7515 41.5561C32.7515 42.6201 32.8915 43.5861 33.5915 44.3001C34.0675 44.7761 34.7255 45.0841 35.5655 45.0841C36.4055 45.0841 37.0635 44.7761 37.5395 44.3001C38.2395 43.5861 38.3795 42.6201 38.3795 41.5561ZM37.3715 41.5561C37.3715 42.3261 37.3295 43.1801 36.8255 43.6841C36.5035 44.0061 36.0555 44.1881 35.5655 44.1881C35.0755 44.1881 34.6415 44.0061 34.3195 43.6841C33.8155 43.1801 33.7595 42.3261 33.7595 41.5561C33.7595 40.7861 33.8155 39.9321 34.3195 39.4281C34.6415 39.1061 35.0755 38.9241 35.5655 38.9241C36.0555 38.9241 36.5035 39.1061 36.8255 39.4281C37.3295 39.9321 37.3715 40.7861 37.3715 41.5561Z" fill="black" fill-opacity="0.65"/>
<path d="M41.8274 45.0001V43.6841H40.5113V45.0001H41.8274Z" fill="black" fill-opacity="0.65"/>
<path d="M49.1568 38.1121H48.0648L46.1748 43.6421L44.2988 38.1121H43.2068L45.7268 45.0001H46.6228L49.1568 38.1121Z" fill="black" fill-opacity="0.65"/>
<path d="M51.6525 36.1521V35.0181H50.5185V36.1521H51.6525ZM51.5825 45.0001V38.1121H50.5745V45.0001H51.5825Z" fill="black" fill-opacity="0.65"/>
<path d="M59.5895 41.5561C59.5895 40.4781 59.4495 39.3301 58.7495 38.6301C58.3855 38.2661 57.7695 38.0281 57.0695 38.0281C56.3135 38.0281 55.6835 38.1961 55.1235 38.9241V38.1121H54.1155V48.0801H55.1235V44.1881C55.6835 44.9021 56.3135 45.0841 57.0695 45.0841C57.7695 45.0841 58.3855 44.8461 58.7495 44.4821C59.4495 43.7821 59.5895 42.6341 59.5895 41.5561ZM58.5815 41.5561C58.5815 42.9001 58.3575 44.1881 56.8595 44.1881C55.3615 44.1881 55.1235 42.9001 55.1235 41.5561C55.1235 40.2121 55.3615 38.9241 56.8595 38.9241C58.3575 38.9241 58.5815 40.2121 58.5815 41.5561Z" fill="black" fill-opacity="0.65"/>
<path d="M63.0324 45.0001V43.6841H61.7164V45.0001H63.0324Z" fill="black" fill-opacity="0.65"/>
<path d="M71.0059 43.4181V42.5081H69.7879V39.6801H68.7939V42.5081H65.8959L69.4939 35.0321H68.4159L64.8179 42.5081V43.4181H68.7939V45.0001H69.7879V43.4181H71.0059Z" fill="black" fill-opacity="0.65"/>
<path d="M78.2503 45.0001V40.5901C78.2503 39.7921 78.0263 39.1481 77.5363 38.6721C77.1163 38.2521 76.5143 38.0281 75.7723 38.0281C75.0023 38.0281 74.3303 38.3081 73.8403 38.8681V38.1121H72.8323V45.0001H73.8403V40.7581C73.8403 39.5541 74.5123 38.9241 75.5483 38.9241C76.5843 38.9241 77.2423 39.5401 77.2423 40.7581V45.0001H78.2503Z" fill="black" fill-opacity="0.65"/>
<path d="M86.1116 45.0001V40.5901C86.1116 39.7921 85.8876 39.1481 85.3976 38.6721C84.9776 38.2521 84.3756 38.0281 83.6336 38.0281C82.8636 38.0281 82.1916 38.3081 81.7016 38.8681V38.1121H80.6936V45.0001H81.7016V40.7581C81.7016 39.5541 82.3736 38.9241 83.4096 38.9241C84.4456 38.9241 85.1036 39.5401 85.1036 40.7581V45.0001H86.1116Z" fill="black" fill-opacity="0.65"/>
<path d="M93.973 45.0001V40.5901C93.973 39.7921 93.749 39.1481 93.259 38.6721C92.839 38.2521 92.237 38.0281 91.495 38.0281C90.725 38.0281 90.053 38.3081 89.563 38.8681V38.1121H88.555V45.0001H89.563V40.7581C89.563 39.5541 90.235 38.9241 91.271 38.9241C92.307 38.9241 92.965 39.5401 92.965 40.7581V45.0001H93.973Z" fill="black" fill-opacity="0.65"/>
<path d="M97.7043 45.0001V43.6841H96.3883V45.0001H97.7043Z" fill="black" fill-opacity="0.65"/>
<path d="M105.132 44.0621L104.446 43.4041C103.928 43.9781 103.522 44.1881 102.864 44.1881C102.192 44.1881 101.632 43.9221 101.268 43.4041C100.946 42.9561 100.82 42.4241 100.82 41.5561C100.82 40.6881 100.946 40.1561 101.268 39.7081C101.632 39.1901 102.192 38.9241 102.864 38.9241C103.522 38.9241 103.928 39.1201 104.446 39.6941L105.132 39.0501C104.418 38.2801 103.816 38.0281 102.864 38.0281C101.128 38.0281 99.8117 39.2041 99.8117 41.5561C99.8117 43.9081 101.128 45.0841 102.864 45.0841C103.816 45.0841 104.418 44.8321 105.132 44.0621Z" fill="black" fill-opacity="0.65"/>
<path d="M112.471 45.0001V40.5901C112.471 39.7921 112.247 39.1481 111.757 38.6721C111.337 38.2521 110.735 38.0281 109.993 38.0281C109.223 38.0281 108.551 38.3081 108.061 38.8681V38.1121H107.053V45.0001H108.061V40.7581C108.061 39.5541 108.733 38.9241 109.769 38.9241C110.805 38.9241 111.463 39.5401 111.463 40.7581V45.0001H112.471Z" fill="black" fill-opacity="0.65"/>
<path d="M16.1094 24.9531V16.4219H14.3281V20.875H10.9531V16.4219H9.14844V22.5156H14.3281V24.9531H16.1094Z" fill="black" fill-opacity="0.65"/>
<path d="M25.9822 24.9531V16.2109H24.2478V21.8594L20.3572 16.2109H18.5994V24.9531H20.3337V19.0703L24.4119 24.9531H25.9822Z" fill="black" fill-opacity="0.65"/>
<path d="M32.0347 15.7422H28.0269V23.1953L27.5816 25.7852H29.2456L29.6909 23.2656V22.8906H30.4175V24.2266H29.9487V25.7852H32.0347V15.7422ZM29.6909 21.2969V20.0781H30.4175V21.2969H29.6909ZM29.6909 18.4844V17.3359H30.4175V18.4844H29.6909ZM35.6909 21.4609L34.9644 20.5H32.9722L34.5894 22.7266L32.3862 25.7852H34.3316L35.6675 23.9453L36.9566 25.7852H38.9956L36.7456 22.7266L38.3159 20.5H36.3706L35.6909 21.4609ZM38.7378 17.6641V16.0703H36.5581L36.3003 15.5078H34.5191L34.7534 16.0703H32.4566V17.6641H38.7378ZM37.7534 18.0156H35.9722L37.1206 20.125H38.9019L37.7534 18.0156ZM35.2925 18.0156H33.5581L32.2691 20.125H34.0034L35.2925 18.0156Z" fill="black" fill-opacity="0.65"/>
<path d="M42.0247 19.2578H49.0559V19.5859H50.7903V18.6719H46.3841V18.3203H50.6263V16.7969H46.3841V16.4453H50.6497V15.8594H46.3606V15.5547H44.6497V15.8594H40.3841V16.4453H44.6497V16.7969H40.5013V18.3203H44.6497V18.6719H40.2903V19.5859H42.0247V19.2578ZM42.2356 17.7344V17.3828H44.6497V17.7344H42.2356ZM48.8919 17.3828V17.7344H46.3841V17.3828H48.8919ZM43.1497 24.6016H42.6575L43.0091 24.2266H50.8606V23.6406H48.9388V23.2891H50.5325V22.7031H48.9388V22.3516H50.72V21.7656H48.9388V21.4141H50.5091V19.9375H45.8684V21.4141H47.2044V21.7656H43.9231V21.4141H45.2122V19.9375H40.6184V21.4141H42.1888V21.7656H40.4075V22.3516H42.1888V22.7031H40.5013V23.2891H42.1888V23.6406H40.22V24.2266H41.0403L40.3372 24.8594H41.4153V25.1758H41.1341V25.8555L45.7981 25.668V25.0117L43.1497 25.1289V24.6016ZM42.3528 20.8281V20.5234H43.4778V20.8281H42.3528ZM47.6028 20.8281V20.5234H48.7747V20.8281H47.6028ZM43.9231 22.6797V22.3281H47.2044V22.6797H43.9231ZM43.9231 23.6172V23.2656H47.2044V23.6172H43.9231ZM48.5872 24.9297L46.1263 24.3906V25.0352L50.8138 26.043V25.4102L50.0403 25.2695L50.5794 24.4844H48.8919L48.5872 24.9297Z" fill="black" fill-opacity="0.65"/>
<path d="M58.9522 21.5312V20.1016V19.6328H58.4834H57.0303H56.5616V20.1016V21.5312V22H57.0303H58.4834H58.9522V21.5312Z" fill="black" fill-opacity="0.65"/>
<path d="M68.9656 15.6953V22.3047H70.5828V17.2422H73.4187V22.3047H75.0359V15.6953H68.9656ZM71.1922 17.8516V21.625L68.3797 25.7852H70.2781L72.8094 22.0938V17.8516H71.1922ZM75.6453 23.7344H74.1219L73.9812 24.25H73.7469V23.1484H72.1297V25.7852H75.2234L75.6453 23.7344ZM65.5906 16.8203H67.5125L66.8797 15.5547H64.9813L65.5906 16.8203ZM68.075 18.1094V17.1719H64.2547V18.7656H65.8016L64.0203 22.0703H65.0047V25.7852H66.7391V20.6406L68.075 18.1094ZM68.8016 22.75L68.4734 20.6641H66.9266L67.2078 22.75H68.8016Z" fill="black" fill-opacity="0.65"/>
<path d="M81.7447 18.9766H80.7369V18.2266H81.6744V16.7734H80.7369V15.5547H79.19V18.9766H78.7681V16.1875H77.2681V18.9766H76.7994V20.4297H81.7447V18.9766ZM77.3619 21.1328L76.7291 23.4062H78.2525L78.8853 21.1328H77.3619ZM80.69 20.7812H79.0494V23.2891H79.5181L76.9634 24.4141V25.9961L81.7213 23.8984V22.1875L80.69 22.7266V20.7812ZM83.8306 17.1484L83.4791 17.7109H82.0963V23.3359H83.6431V19.1172H85.94V23.2422H87.4869V17.7109H85.2369L85.5416 17.1484H87.5338V15.7422H82.0494V17.1484H83.8306ZM87.6509 25.832V24.1328L85.5416 23.2422V19.4688H84.0416V23.2891L82.0259 24.1562V25.8555L84.9088 24.6016L87.6509 25.832Z" fill="black" fill-opacity="0.65"/>
<path d="M93.2816 23.7578V24.3203H93.0238V25.7852H94.7816V17.8516H94.3597L94.9925 16.0234H91.4534L91.6175 15.5547H89.93L88.7113 19.0703H89.3675V23.5938L88.9222 25.7852H90.4691L90.8441 23.7578H91.3128V25.5977H92.7894V23.7578H93.2816ZM97.055 24.8125V25.7852H98.555V24.8125H99.8441V23.3125H98.555V22.375H99.7034V20.875H98.555V19.9141H97.055V20.875H96.7269L96.8441 20.1953H95.4378L94.8519 23.0078H96.3284L96.4925 22.375H97.055V23.3125H95.2034V24.8125H97.055ZM98.1566 17.3125L98.1097 18.0625H97.6175V19.5859H99.7034L99.7972 15.8359H95.2034V17.3125H96.0003L94.8753 19.6328H96.5863L97.7113 17.3125H98.1566ZM92.8597 17.4766L92.6956 17.8516H90.8675L91.0081 17.4766H92.8597ZM93.2816 19.3047V20.0547H92.7425V19.3047H93.2816ZM93.2816 21.5078V22.3047H92.7425V21.5078H93.2816ZM90.8441 20.0547V19.3047H91.3831V20.0547H90.8441ZM90.8441 22.3047V21.5078H91.3831V22.3047H90.8441Z" fill="black" fill-opacity="0.65"/>
<path d="M106.647 15.9531V22.9375L105.897 25.7852H107.701L108.381 23.125V20.2891H109.787V25.7852H111.522V20.2891H112.225V18.7422H108.381V17.4531L112.107 17.1719V15.5781L106.647 15.9531ZM105.053 16.6797V15.5078H103.318V16.6797H101.232V18.2266H103.318V25.7852H105.053V22.0703L106.225 23.0547V20.7812L105.053 19.7969V18.2266H106.225V16.6797H105.053ZM102.639 25.2461L103.178 18.7422H101.584L101.092 25.2461H102.639Z" fill="black" fill-opacity="0.65"/>
</svg>
